<svg version="1.1" id="noimage-logotip" xmlns="http://www.w3.org/2000/svg" xmlns:xlink="http://www.w3.org/1999/xlink" x="0px" y="0px" viewBox="0 0 140 40" style="enable-background:new 0 0 140 40;" xml:space="preserve">
	<path d="M17.19 35.15a6 6 0 0 1-.12 1.07 1 1 0 0 1-.15.28.3.3 0 0 1-.21.09h-8.2q-.27 0-.54-.35-.28-.34-.28-1.27V3.93q0-.16.04-.28c.04-.12.08-.15.15-.21q.1-.07.28-.13a2 2 0 0 1 .85 0q.16.05.27.13.1.08.15.21c.05.13.04.18.04.28v29.81h7.25q.12 0 .21.09.09.1.15.26.06.17.09.44zM35.5 19.62q0 3.98-.52 7.19a22 22 0 0 1-1.56 5.49q-1.04 2.27-2.62 3.5c-1.58 1.23-2.29 1.23-3.69 1.23s-2.61-.39-3.63-1.17-1.84-1.89-2.49-3.33q-.98-2.16-1.44-5.29c-.46-3.13-.46-4.44-.46-7.05q0-3.9.51-7.08t1.56-5.42 2.62-3.47c1.57-1.23 2.28-1.23 3.7-1.23q2.07 0 3.57 1.15c1.5 1.15 1.85 1.86 2.51 3.3s1.15 3.18 1.46 5.23.48 4.37.48 6.95m-1.9.28q0-2.95-.31-5.52a20 20 0 0 0-1.04-4.49 8 8 0 0 0-1.93-3 4.2 4.2 0 0 0-2.97-1.09q-1.76 0-2.97 1.14A8 8 0 0 0 22.41 10q-.75 1.92-1.08 4.49a49 49 0 0 0-.03 11.04q.3 2.6 1.02 4.52a7.5 7.5 0 0 0 1.92 3.01q1.2 1.1 3 1.09 1.79 0 3-1.17a8.4 8.4 0 0 0 1.96-3.13q.74-1.96 1.07-4.54.33-2.57.33-5.41M53.59 7.59a6 6 0 0 1-.11 1.09q-.05.2-.13.29-.1.12-.17.1-.18 0-.58-.51c-.4-.51-.63-.71-1.08-1.12q-.67-.6-1.63-1.12a5 5 0 0 0-5.27.59Q43.3 8 42.39 9.9a14 14 0 0 0-1.38 4.5q-.48 2.6-.48 5.6a30 30 0 0 0 .54 5.99q.54 2.63 1.5 4.44.96 1.8 2.29 2.76c1.33.96 1.85.95 2.89.95q1.01 0 2.05-.44a5 5 0 0 0 1.95-1.33V21.62h-4.83q-.23 0-.35-.36a6 6 0 0 1-.09-1.66q.03-.27.09-.44t.15-.26a.3.3 0 0 1 .21-.09h5.8q.13 0 .28.08c.15.08.19.14.27.26q.12.18.2.5.07.31.07.78v12.33q0 .62-.11 1.05t-.51.83-1.05.87a7.5 7.5 0 0 1-4.17 1.45 6.4 6.4 0 0 1-3.85-1.22A10 10 0 0 1 41 32.3a20 20 0 0 1-1.78-5.28 34 34 0 0 1-.62-6.75q0-3.87.67-7.06a20 20 0 0 1 1.88-5.45q1.21-2.25 2.89-3.5a6.1 6.1 0 0 1 5.66-.91 8 8 0 0 1 2.9 1.84q.5.56.7.87t.25.63c.06.32.04.51.04.9m20.37 12.03q0 3.98-.52 7.19a22 22 0 0 1-1.56 5.49q-1.04 2.27-2.62 3.5c-1.58 1.23-2.29 1.23-3.69 1.23s-2.61-.39-3.63-1.17-1.84-1.89-2.49-3.33q-.98-2.16-1.44-5.29c-.46-3.13-.46-4.44-.46-7.05q0-3.9.51-7.08t1.56-5.42 2.62-3.47c1.57-1.23 2.28-1.23 3.7-1.23q2.07 0 3.57 1.15c1.5 1.15 1.84 1.87 2.5 3.31s1.15 3.18 1.46 5.23.49 4.36.49 6.94m-1.91.28q0-2.95-.31-5.52a20 20 0 0 0-1.04-4.49 8 8 0 0 0-1.93-3A4.2 4.2 0 0 0 65.8 5.8q-1.75 0-2.97 1.14A8 8 0 0 0 60.87 10q-.75 1.92-1.08 4.49a49 49 0 0 0-.03 11.04q.3 2.6 1.02 4.52a7.5 7.5 0 0 0 1.92 3.01q1.2 1.1 3 1.09 1.79 0 3-1.17a8.4 8.4 0 0 0 1.96-3.13q.75-1.96 1.07-4.54.32-2.57.32-5.41M89.82 4.85q0 .33-.03.59a2 2 0 0 1-.09.42 1 1 0 0 1-.15.26q-.09.09-.19.09h-5.65v29.86q0 .16-.04.28c-.04.12-.08.15-.15.21q-.1.07-.28.13a2 2 0 0 1-.84 0 1 1 0 0 1-.28-.13q-.1-.07-.15-.21c-.05-.14-.04-.18-.04-.28V6.21h-5.65a.3.3 0 0 1-.2-.09 1 1 0 0 1-.14-.26 2 2 0 0 1-.09-.42 5 5 0 0 1 .09-1.67 1 1 0 0 1 .14-.27.3.3 0 0 1 .2-.09h13.1q.1 0 .19.09t.15.27.09.45zm8.19 18.66v12.56q0 .16-.04.28c-.04.12-.08.15-.15.21q-.1.07-.28.13a2 2 0 0 1-.85 0 1 1 0 0 1-.28-.13q-.1-.07-.15-.21c-.05-.14-.04-.18-.04-.28V23.51L90.76 4.47a3 3 0 0 1-.12-.62.6.6 0 0 1 .07-.36q.08-.12.27-.18.2-.05.48-.05.32 0 .52.04t.32.12c.12.08.14.12.18.21l.12.31 2.9 10.33.81 3.03.81 3.15h.03l.78-3.05.81-3.05 2.93-10.41q.04-.18.1-.31t.16-.21c.1-.08.16-.09.27-.12q.17-.04.42-.04.34 0 .57.05t.31.19.07.37c-.02.23-.05.35-.12.59zm19.82-10.59q0 2.31-.45 4.23c-.45 1.92-.73 2.38-1.28 3.31s-1.24 1.64-2.04 2.15-1.77.77-2.9.77h-2.46v12.69q0 .16-.04.28c-.04.12-.08.15-.15.21q-.1.07-.27.13a2 2 0 0 1-.85 0 1 1 0 0 1-.28-.13q-.1-.07-.15-.21c-.05-.14-.04-.18-.04-.28V5.03q0-.93.28-1.27.28-.35.54-.35h3.85q.57 0 1.11.09.54.1 1.27.38.73.3 1.48 1.1.75.81 1.28 1.97.53 1.17.81 2.67.29 1.51.29 3.3m-1.89.29q0-2.16-.48-3.65-.48-1.5-1.18-2.23a3 3 0 0 0-1.45-.92q-.75-.2-1.43-.19h-2.7v14.41h2.58q1.24 0 2.08-.55a4.5 4.5 0 0 0 1.41-1.53 8 8 0 0 0 .87-2.35q.3-1.38.3-2.99m16.37 21.99q0 .33-.03.59t-.1.44a1 1 0 0 1-.15.27q-.09.09-.19.09h-8.88q-.27 0-.54-.35-.28-.34-.28-1.27V5.03q0-.93.28-1.27.28-.35.54-.35h8.75q.1 0 .19.09t.15.27.09.45a6 6 0 0 1-.09 1.64 1 1 0 0 1-.15.26q-.09.09-.19.09h-7.78v11.66h6.71q.12 0 .21.09.09.1.15.26.06.17.09.44a6 6 0 0 1 0 1.21q-.03.24-.09.4c-.06.16-.09.18-.15.23s-.13.08-.21.08h-6.71v13.23h7.91q.1 0 .19.09.09.1.15.26.06.17.1.44.03.23.03.6"/>
</svg>
